<svg width="52" height="52" viewBox="0 0 52 52" fill="none" xmlns="http://www.w3.org/2000/svg">
<g clip-path="url(#clip0_19_44)">
<path d="M4 14C4 13.4696 3.78929 12.9609 3.41421 12.5858C3.03914 12.2107 2.53043 12 2 12C1.46957 12 0.960859 12.2107 0.585786 12.5858C0.210714 12.9609 0 13.4696 0 14C0 14.5304 0.210714 15.0391 0.585786 15.4142C0.960859 15.7893 1.46957 16 2 16C2.53043 16 3.03914 15.7893 3.41421 15.4142C3.78929 15.0391 4 14.5304 4 14ZM4 2C4 1.46957 3.78929 0.960859 3.41421 0.585786C3.03914 0.210714 2.53043 0 2 0C1.46957 0 0.960859 0.210714 0.585786 0.585786C0.210714 0.960859 0 1.46957 0 2C0 2.53043 0.210714 3.03914 0.585786 3.41421C0.960859 3.78929 1.46957 4 2 4C2.53043 4 3.03914 3.78929 3.41421 3.41421C3.78929 3.03914 4 2.53043 4 2ZM16 38C16 37.4696 15.7893 36.9609 15.4142 36.5858C15.0391 36.2107 14.5304 36 14 36C13.4696 36 12.9609 36.2107 12.5858 36.5858C12.2107 36.9609 12 37.4696 12 38C12 38.5304 12.2107 39.0391 12.5858 39.4142C12.9609 39.7893 13.4696 40 14 40C14.5304 40 15.0391 39.7893 15.4142 39.4142C15.7893 39.0391 16 38.5304 16 38ZM16 26C16 25.4696 15.7893 24.9609 15.4142 24.5858C15.0391 24.2107 14.5304 24 14 24C13.4696 24 12.9609 24.2107 12.5858 24.5858C12.2107 24.9609 12 25.4696 12 26C12 26.5304 12.2107 27.0391 12.5858 27.4142C12.9609 27.7893 13.4696 28 14 28C14.5304 28 15.0391 27.7893 15.4142 27.4142C15.7893 27.0391 16 26.5304 16 26ZM16 14C16 13.4696 15.7893 12.9609 15.4142 12.5858C15.0391 12.2107 14.5304 12 14 12C13.4696 12 12.9609 12.2107 12.5858 12.5858C12.2107 12.9609 12 13.4696 12 14C12 14.5304 12.2107 15.0391 12.5858 15.4142C12.9609 15.7893 13.4696 16 14 16C14.5304 16 15.0391 15.7893 15.4142 15.4142C15.7893 15.0391 16 14.5304 16 14ZM16 2C16 1.46957 15.7893 0.960859 15.4142 0.585786C15.0391 0.210714 14.5304 0 14 0C13.4696 0 12.9609 0.210714 12.5858 0.585786C12.2107 0.960859 12 1.46957 12 2C12 2.53043 12.2107 3.03914 12.5858 3.41421C12.9609 3.78929 13.4696 4 14 4C14.5304 4 15.0391 3.78929 15.4142 3.41421C15.7893 3.03914 16 2.53043 16 2ZM28 38C28 37.4696 27.7893 36.9609 27.4142 36.5858C27.0391 36.2107 26.5304 36 26 36C25.4696 36 24.9609 36.2107 24.5858 36.5858C24.2107 36.9609 24 37.4696 24 38C24 38.5304 24.2107 39.0391 24.5858 39.4142C24.9609 39.7893 25.4696 40 26 40C26.5304 40 27.0391 39.7893 27.4142 39.4142C27.7893 39.0391 28 38.5304 28 38ZM28 26C28 25.4696 27.7893 24.9609 27.4142 24.5858C27.0391 24.2107 26.5304 24 26 24C25.4696 24 24.9609 24.2107 24.5858 24.5858C24.2107 24.9609 24 25.4696 24 26C24 26.5304 24.2107 27.0391 24.5858 27.4142C24.9609 27.7893 25.4696 28 26 28C26.5304 28 27.0391 27.7893 27.4142 27.4142C27.7893 27.0391 28 26.5304 28 26ZM28 14C28 13.4696 27.7893 12.9609 27.4142 12.5858C27.0391 12.2107 26.5304 12 26 12C25.4696 12 24.9609 12.2107 24.5858 12.5858C24.2107 12.9609 24 13.4696 24 14C24 14.5304 24.2107 15.0391 24.5858 15.4142C24.9609 15.7893 25.4696 16 26 16C26.5304 16 27.0391 15.7893 27.4142 15.4142C27.7893 15.0391 28 14.5304 28 14ZM28 2C28 1.46957 27.7893 0.960859 27.4142 0.585786C27.0391 0.210714 26.5304 0 26 0C25.4696 0 24.9609 0.210714 24.5858 0.585786C24.2107 0.960859 24 1.46957 24 2C24 2.53043 24.2107 3.03914 24.5858 3.41421C24.9609 3.78929 25.4696 4 26 4C26.5304 4 27.0391 3.78929 27.4142 3.41421C27.7893 3.03914 28 2.53043 28 2ZM40 50C40 49.4696 39.7893 48.9609 39.4142 48.5858C39.0391 48.2107 38.5304 48 38 48C37.4696 48 36.9609 48.2107 36.5858 48.5858C36.2107 48.9609 36 49.4696 36 50C36 50.5304 36.2107 51.0391 36.5858 51.4142C36.9609 51.7893 37.4696 52 38 52C38.5304 52 39.0391 51.7893 39.4142 51.4142C39.7893 51.0391 40 50.5304 40 50ZM40 38C40 37.4696 39.7893 36.9609 39.4142 36.5858C39.0391 36.2107 38.5304 36 38 36C37.4696 36 36.9609 36.2107 36.5858 36.5858C36.2107 36.9609 36 37.4696 36 38C36 38.5304 36.2107 39.0391 36.5858 39.4142C36.9609 39.7893 37.4696 40 38 40C38.5304 40 39.0391 39.7893 39.4142 39.4142C39.7893 39.0391 40 38.5304 40 38ZM40 26C40 25.4696 39.7893 24.9609 39.4142 24.5858C39.0391 24.2107 38.5304 24 38 24C37.4696 24 36.9609 24.2107 36.5858 24.5858C36.2107 24.9609 36 25.4696 36 26C36 26.5304 36.2107 27.0391 36.5858 27.4142C36.9609 27.7893 37.4696 28 38 28C38.5304 28 39.0391 27.7893 39.4142 27.4142C39.7893 27.0391 40 26.5304 40 26ZM40 14C40 13.4696 39.7893 12.9609 39.4142 12.5858C39.0391 12.2107 38.5304 12 38 12C37.4696 12 36.9609 12.2107 36.5858 12.5858C36.2107 12.9609 36 13.4696 36 14C36 14.5304 36.2107 15.0391 36.5858 15.4142C36.9609 15.7893 37.4696 16 38 16C38.5304 16 39.0391 15.7893 39.4142 15.4142C39.7893 15.0391 40 14.5304 40 14ZM40 2C40 1.46957 39.7893 0.960859 39.4142 0.585786C39.0391 0.210714 38.5304 0 38 0C37.4696 0 36.9609 0.210714 36.5858 0.585786C36.2107 0.960859 36 1.46957 36 2C36 2.53043 36.2107 3.03914 36.5858 3.41421C36.9609 3.78929 37.4696 4 38 4C38.5304 4 39.0391 3.78929 39.4142 3.41421C39.7893 3.03914 40 2.53043 40 2ZM52 50C52 49.4696 51.7893 48.9609 51.4142 48.5858C51.0391 48.2107 50.5304 48 50 48C49.4696 48 48.9609 48.2107 48.5858 48.5858C48.2107 48.9609 48 49.4696 48 50C48 50.5304 48.2107 51.0391 48.5858 51.4142C48.9609 51.7893 49.4696 52 50 52C50.5304 52 51.0391 51.7893 51.4142 51.4142C51.7893 51.0391 52 50.5304 52 50ZM52 38C52 37.4696 51.7893 36.9609 51.4142 36.5858C51.0391 36.2107 50.5304 36 50 36C49.4696 36 48.9609 36.2107 48.5858 36.5858C48.2107 36.9609 48 37.4696 48 38C48 38.5304 48.2107 39.0391 48.5858 39.4142C48.9609 39.7893 49.4696 40 50 40C50.5304 40 51.0391 39.7893 51.4142 39.4142C51.7893 39.0391 52 38.5304 52 38ZM52 26C52 25.4696 51.7893 24.9609 51.4142 24.5858C51.0391 24.2107 50.5304 24 50 24C49.4696 24 48.9609 24.2107 48.5858 24.5858C48.2107 24.9609 48 25.4696 48 26C48 26.5304 48.2107 27.0391 48.5858 27.4142C48.9609 27.7893 49.4696 28 50 28C50.5304 28 51.0391 27.7893 51.4142 27.4142C51.7893 27.0391 52 26.5304 52 26ZM52 14C52 13.4696 51.7893 12.9609 51.4142 12.5858C51.0391 12.2107 50.5304 12 50 12C49.4696 12 48.9609 12.2107 48.5858 12.5858C48.2107 12.9609 48 13.4696 48 14C48 14.5304 48.2107 15.0391 48.5858 15.4142C48.9609 15.7893 49.4696 16 50 16C50.5304 16 51.0391 15.7893 51.4142 15.4142C51.7893 15.0391 52 14.5304 52 14ZM52 2C52 1.46957 51.7893 0.960859 51.4142 0.585786C51.0391 0.210714 50.5304 0 50 0C49.4696 0 48.9609 0.210714 48.5858 0.585786C48.2107 0.960859 48 1.46957 48 2C48 2.53043 48.2107 3.03914 48.5858 3.41421C48.9609 3.78929 49.4696 4 50 4C50.5304 4 51.0391 3.78929 51.4142 3.41421C51.7893 3.03914 52 2.53043 52 2Z" fill="#7F7F7F" fill-opacity="0.1"/>
</g>
<defs>
<clipPath id="clip0_19_44">
<rect width="52" height="52" fill="white"/>
</clipPath>
</defs>
</svg>
