<svg width="24" height="24" viewBox="0 0 24 24" fill="none" xmlns="http://www.w3.org/2000/svg">
<path d="M12 3C12.2549 3.00028 12.5 3.09788 12.6854 3.27285C12.8707 3.44782 12.9822 3.68695 12.9972 3.94139C13.0121 4.19584 12.9293 4.44638 12.7657 4.64183C12.6021 4.83729 12.3701 4.9629 12.117 4.993L12 5H11V6H13.764C14.012 5.99999 14.2579 6.04611 14.489 6.136L14.659 6.211L17.894 7.829C18.2019 7.98277 18.465 8.21341 18.6577 8.49861C18.8504 8.78381 18.9662 9.11392 18.994 9.457L19 9.618V12H20V11C20.0003 10.7451 20.0979 10.5 20.2728 10.3146C20.4478 10.1293 20.687 10.0178 20.9414 10.0028C21.1958 9.98789 21.4464 10.0707 21.6418 10.2343C21.8373 10.3979 21.9629 10.6299 21.993 10.883L22 11V15C21.9997 15.2549 21.9021 15.5 21.7272 15.6854C21.5522 15.8707 21.313 15.9822 21.0586 15.9972C20.8042 16.0121 20.5536 15.9293 20.3582 15.7657C20.1627 15.6021 20.0371 15.3701 20.007 15.117L20 15V14H19V15.5C19 15.7817 18.9405 16.0602 18.8254 16.3174C18.7103 16.5745 18.5421 16.8044 18.332 16.992L18.2 17.1L14.867 19.6C14.571 19.8218 14.2193 19.9571 13.851 19.991L13.667 20H5C4.49542 20.0002 4.00943 19.8096 3.63945 19.4665C3.26947 19.1234 3.04284 18.6532 3.005 18.15L3 18V8C2.99984 7.49542 3.19041 7.00943 3.5335 6.63945C3.87659 6.26947 4.34684 6.04284 4.85 6.005L5 6H9V5H8C7.74512 4.99972 7.49997 4.90212 7.31463 4.72715C7.1293 4.55218 7.01777 4.31305 7.00283 4.05861C6.98789 3.80416 7.07067 3.55362 7.23426 3.35817C7.39786 3.16271 7.6299 3.0371 7.883 3.007L8 3H12ZM13.764 8H5V18H13.667L17 15.5V9.618L13.764 8ZM9.643 9.986C9.77458 9.76802 9.98435 9.60845 10.2295 9.53981C10.4747 9.47118 10.7369 9.49865 10.9625 9.61663C11.1881 9.73461 11.3602 9.93421 11.4438 10.1747C11.5273 10.4152 11.5159 10.6786 11.412 10.911L11.357 11.015L10.767 12H11.982C12.728 12 13.203 12.773 12.902 13.427L12.848 13.53L11.358 16.015C11.228 16.2364 11.0178 16.3992 10.771 16.4699C10.5242 16.5406 10.2597 16.5136 10.0322 16.3946C9.8047 16.2756 9.63171 16.0737 9.54903 15.8306C9.46634 15.5876 9.48029 15.322 9.588 15.089L9.643 14.985L10.233 14H9.019C8.85008 14 8.68386 13.9577 8.53554 13.8768C8.38723 13.796 8.26155 13.6792 8.17002 13.5373C8.07849 13.3953 8.02403 13.2327 8.01163 13.0642C7.99922 12.8957 8.02926 12.7268 8.099 12.573L8.153 12.47L9.643 9.985V9.986Z" fill="url(#paint0_linear_308_177)"/>
<defs>
<linearGradient id="paint0_linear_308_177" x1="12.5" y1="3" x2="12.5" y2="20" gradientUnits="userSpaceOnUse">
<stop stop-color="#FFBF00"/>
<stop offset="1" stop-color="#F2A50C"/>
</linearGradient>
</defs>
</svg>
