<svg width="135" height="29" viewBox="0 0 135 29" fill="none" xmlns="http://www.w3.org/2000/svg">
<path d="M0 18.296C0 16.232 0.419998 14.432 1.26 12.896C2.1 11.336 3.264 10.136 4.752 9.296C6.24 8.432 7.944 8 9.864 8C12.336 8 14.376 8.624 15.984 9.872C17.616 11.096 18.708 12.824 19.26 15.056H13.825C13.537 14.192 13.045 13.52 12.349 13.04C11.677 12.536 10.837 12.284 9.829 12.284C8.389 12.284 7.249 12.812 6.409 13.868C5.569 14.9 5.149 16.376 5.149 18.296C5.149 20.192 5.569 21.668 6.409 22.724C7.249 23.756 8.389 24.272 9.829 24.272C11.869 24.272 13.201 23.36 13.825 21.536H19.261C18.709 23.696 17.617 25.412 15.985 26.684C14.353 27.956 12.313 28.592 9.865 28.592C7.945 28.592 6.241 28.172 4.753 27.332C3.27678 26.4802 2.06746 25.2335 1.261 23.732C0.420998 22.172 0 20.36 0 18.296Z" fill="white"/>
<path d="M1.26 12.896C0.419998 14.432 0 16.232 0 18.296C0 20.36 0.420998 22.172 1.261 23.732C2.06746 25.2335 3.27678 26.4802 4.753 27.332C6.241 28.172 7.945 28.592 9.865 28.592C12.313 28.592 14.353 27.956 15.985 26.684C17.617 25.412 18.709 23.696 19.261 21.536H13.825C13.201 23.36 11.869 24.272 9.829 24.272C8.389 24.272 7.249 23.756 6.409 22.724C5.569 21.668 5.149 20.192 5.149 18.296C5.149 16.376 5.569 14.9 6.409 13.868C7.249 12.812 8.389 12.284 9.829 12.284C10.837 12.284 11.677 12.536 12.349 13.04C13.045 13.52 13.537 14.192 13.825 15.056H19.26C18.708 12.824 17.616 11.096 15.984 9.872C14.376 8.624 12.336 8 9.864 8C7.944 8 6.24 8.432 4.752 9.296C3.264 10.136 2.1 11.336 1.26 12.896Z" fill="white"/>
<path d="M34.356 25.46C33.804 26.372 32.904 27.14 31.656 27.764C30.408 28.364 29.064 28.664 27.624 28.664C26.376 28.664 25.248 28.412 24.24 27.908C23.232 27.404 22.44 26.708 21.864 25.82C21.288 24.932 21 23.912 21 22.76C21 20.912 21.684 19.4 23.052 18.224C24.444 17.048 26.52 16.46 29.28 16.46H34.356C34.308 15.188 33.936 14.18 33.24 13.436C32.568 12.668 31.632 12.284 30.432 12.284C29.376 12.284 28.5 12.572 27.804 13.148C27.108 13.7 26.664 14.48 26.472 15.488H21.432C21.672 14.048 22.188 12.764 22.98 11.636C23.7889 10.49 24.8802 9.57231 26.148 8.972C27.468 8.324 28.944 8 30.576 8C32.256 8 33.768 8.348 35.112 9.044C36.4468 9.70875 37.5598 10.7468 38.316 12.032C39.084 13.328 39.468 14.852 39.468 16.604V28.304H34.356V25.46ZM29.1 24.596C29.94 24.596 30.756 24.416 31.548 24.056C32.364 23.696 33.036 23.156 33.564 22.436C34.092 21.716 34.356 20.864 34.356 19.88V19.736H29.568C28.416 19.736 27.552 19.964 26.976 20.42C26.424 20.876 26.148 21.476 26.148 22.22C26.148 22.94 26.4 23.516 26.904 23.948C27.432 24.38 28.164 24.596 29.1 24.596Z" fill="white"/>
<path d="M47.04 11.384C47.658 10.3575 48.5247 9.5032 49.56 8.9C50.616 8.3 51.816 8 53.16 8V13.292H51.828C50.244 13.292 49.044 13.664 48.228 14.408C47.436 15.152 47.04 16.448 47.04 18.296V28.232H42V8.288H47.04V11.384Z" fill="white"/>
<path d="M54 18.0064C54 15.9424 54.42 14.1424 55.26 12.6064C56.1 11.0464 57.264 9.84635 58.752 9.00635C60.24 8.14235 61.944 7.71035 63.864 7.71035C66.336 7.71035 68.376 8.33435 69.984 9.58235C71.616 10.8064 72.708 12.5344 73.26 14.7664H67.825C67.537 13.9024 67.045 13.2304 66.349 12.7504C65.677 12.2464 64.837 11.9944 63.829 11.9944C62.389 11.9944 61.249 12.5224 60.409 13.5784C59.569 14.6104 59.149 16.0864 59.149 18.0064C59.149 19.9024 59.569 21.3784 60.409 22.4344C61.249 23.4664 62.389 23.9824 63.829 23.9824C65.869 23.9824 67.201 23.0704 67.825 21.2464H73.261C72.709 23.4064 71.617 25.1224 69.985 26.3944C68.353 27.6664 66.313 28.3024 63.865 28.3024C61.945 28.3024 60.241 27.8824 58.753 27.0424C57.2768 26.1905 56.0675 24.9438 55.261 23.4424C54.421 21.8824 54 20.0704 54 18.0064ZM80.993 11.1304C81.611 10.1038 82.4777 9.24955 83.513 8.64635C84.569 8.04635 85.769 7.74635 87.113 7.74635V13.0384H85.781C84.197 13.0384 82.997 13.4104 82.181 14.1544C81.389 14.8984 80.993 16.1944 80.993 18.0424V27.9784H75.953V8.03435H80.993V11.1304ZM102.567 25.1344C102.015 26.0464 101.115 26.8144 99.867 27.4384C98.619 28.0384 97.275 28.3384 95.835 28.3384C94.587 28.3384 93.459 28.0864 92.451 27.5824C91.443 27.0784 90.651 26.3824 90.075 25.4944C89.499 24.6064 89.211 23.5864 89.211 22.4344C89.211 20.5864 89.895 19.0744 91.263 17.8984C92.655 16.7224 94.731 16.1344 97.491 16.1344H102.567C102.519 14.8624 102.147 13.8544 101.451 13.1104C100.779 12.3424 99.843 11.9584 98.643 11.9584C97.587 11.9584 96.711 12.2464 96.015 12.8224C95.319 13.3744 94.875 14.1544 94.683 15.1624H89.643C89.883 13.7224 90.399 12.4384 91.191 11.3104C91.9999 10.1643 93.0912 9.24666 94.359 8.64635C95.679 7.99835 97.155 7.67435 98.787 7.67435C100.467 7.67435 101.979 8.02235 103.323 8.71835C104.658 9.3831 105.771 10.4211 106.527 11.7064C107.295 13.0024 107.679 14.5264 107.679 16.2784V27.9784H102.567V25.1344ZM97.311 24.2704C98.151 24.2704 98.967 24.0904 99.759 23.7304C100.575 23.3704 101.247 22.8304 101.775 22.1104C102.303 21.3904 102.567 20.5384 102.567 19.5544V19.4104H97.779C96.627 19.4104 95.763 19.6384 95.187 20.0944C94.635 20.5504 94.359 21.1504 94.359 21.8944C94.359 22.6144 94.611 23.1904 95.115 23.6224C95.643 24.0544 96.375 24.2704 97.311 24.2704ZM118.308 12.1744V27.9784H113.196V12.1744H110.928V8.03435H113.196V7.02635C113.196 4.57835 113.892 2.77835 115.284 1.62635C116.676 0.474353 118.776 -0.0656471 121.584 0.00635294V4.25435C120.36 4.23035 119.508 4.43435 119.028 4.86635C118.548 5.29835 118.308 6.07835 118.308 7.20635V8.03435H124.858V3.10235H129.934V8.03435H134.398V12.1744H129.934V21.8224C129.934 22.4944 130.09 22.9864 130.402 23.2984C130.738 23.5864 131.29 23.7304 132.058 23.7304H134.398V27.9784H131.23C126.982 27.9784 124.858 25.9144 124.858 21.7864V12.1744H118.308Z" fill="white"/>
<path d="M55.26 12.6064C54.42 14.1424 54 15.9424 54 18.0064C54 20.0704 54.421 21.8824 55.261 23.4424C56.0675 24.9438 57.2768 26.1905 58.753 27.0424C60.241 27.8824 61.945 28.3024 63.865 28.3024C66.313 28.3024 68.353 27.6664 69.985 26.3944C71.617 25.1224 72.709 23.4064 73.261 21.2464H67.825C67.201 23.0704 65.869 23.9824 63.829 23.9824C62.389 23.9824 61.249 23.4664 60.409 22.4344C59.569 21.3784 59.149 19.9024 59.149 18.0064C59.149 16.0864 59.569 14.6104 60.409 13.5784C61.249 12.5224 62.389 11.9944 63.829 11.9944C64.837 11.9944 65.677 12.2464 66.349 12.7504C67.045 13.2304 67.537 13.9024 67.825 14.7664H73.26C72.708 12.5344 71.616 10.8064 69.984 9.58235C68.376 8.33435 66.336 7.71035 63.864 7.71035C61.944 7.71035 60.24 8.14235 58.752 9.00635C57.264 9.84635 56.1 11.0464 55.26 12.6064Z" fill="white"/>
</svg>
